<svg aria-hidden="true" style="width:0;height:0;position:absolute;overflow:hidden" xmlns="http://www.w3.org/2000/svg"><defs><symbol id="icon-camera" viewBox="0 0 32 32"><path fill="#5221e6" style="fill:var(--color1,#5221e6)" d="M29.828 8.236H26.9l-.673-3.034a2.794 2.794 0 0 0-2.746-2.201H13.317c-1.33 0-2.459.905-2.746 2.201l-.673 3.034h-.695V6.941c0-.73-.595-1.323-1.325-1.323H3.592c-.731 0-1.325.594-1.325 1.323v1.295h-.094a2.173 2.173 0 0 0-2.172 2.169v14.688c0 1.196.975 2.169 2.172 2.169h10.075c1.773 1.147 3.886 1.814 6.152 1.814s4.378-.667 6.151-1.814h5.278a2.173 2.173 0 0 0 2.172-2.169V10.405a2.173 2.173 0 0 0-2.172-2.169zM11.79 5.471c.16-.72.787-1.223 1.526-1.223H23.48c.739 0 1.366.503 1.526 1.223l.613 2.765h-1.07c-1.773-1.147-3.886-1.814-6.151-1.814s-4.378.667-6.152 1.814h-1.07l.613-2.765zm-8.274 1.47c0-.042.034-.075.075-.075h4.286c.042 0 .075.034.075.075v1.295H3.515V6.941zm1.503 19.072v-6.777a.624.624 0 0 0-1.25 0v6.777H2.172a.922.922 0 0 1-.922-.921V10.404c0-.508.414-.921.922-.921h8.477c-2.212 2.068-3.597 5.008-3.597 8.265s1.385 6.197 3.597 8.265H5.018zm19.15 0a10.083 10.083 0 0 1-11.542 0c-2.613-1.823-4.325-4.848-4.325-8.265s1.712-6.441 4.325-8.265a10.083 10.083 0 0 1 11.542 0c2.613 1.823 4.325 4.848 4.325 8.265s-1.712 6.441-4.325 8.265zm6.581-.921a.923.923 0 0 1-.922.921h-3.68c2.212-2.068 3.597-5.008 3.597-8.265s-1.385-6.197-3.597-8.265h3.68c.509 0 .922.413.922.921v14.688z"/><path fill="#5221e6" style="fill:var(--color1,#5221e6)" d="M18.37 10.111c-4.248 0-7.704 3.456-7.704 7.704s3.456 7.704 7.704 7.704c.619 0 1.235-.074 1.831-.219a.586.586 0 1 0-.278-1.14 6.537 6.537 0 0 1-8.083-6.344 6.537 6.537 0 0 1 6.53-6.53 6.537 6.537 0 0 1 6.53 6.53 6.488 6.488 0 0 1-1.121 3.659.587.587 0 0 0 .971.659 7.662 7.662 0 0 0 1.323-4.318c0-4.248-3.456-7.704-7.704-7.704zM4.741 11.296c-1.307 0-2.37 1.063-2.37 2.37s1.063 2.37 2.37 2.37c1.307 0 2.37-1.063 2.37-2.37s-1.063-2.37-2.37-2.37zm0 3.468a1.098 1.098 0 0 1 0-2.194 1.098 1.098 0 0 1 0 2.194z"/><path fill="#5221e6" style="fill:var(--color1,#5221e6)" d="M23.692 23.625a.644.644 0 0 0-.089-.213.532.532 0 0 0-.163-.164.679.679 0 0 0-.214-.089.604.604 0 0 0-.445.089c-.032.022-.062.047-.09.074s-.052.057-.073.09a.625.625 0 0 0-.089.213.571.571 0 0 0 .089.445.532.532 0 0 0 .163.163.595.595 0 0 0 .749-.073.597.597 0 0 0 .162-.535z"/></symbol><symbol id="icon-play" viewBox="0 0 32 32"><path fill="none" stroke="#5221e6" style="stroke:var(--color1,#5221e6)" stroke-width="2" d="M31 16c0 8.284-6.716 15-15 15S1 24.284 1 16C1 7.716 7.716 1 16 1s15 6.716 15 15z"/><path fill="#5221e6" style="fill:var(--color1,#5221e6)" d="m21 16-7.5 4.33v-8.66L21 16z"/></symbol><symbol id="icon-pen" viewBox="0 0 32 32"><path fill="#5221e6" style="fill:var(--color1,#5221e6)" d="m17.221 1.2 13.578 13.578 1.2-1.2L18.421 0l-1.2 1.2zM19.234 7.601a2.546 2.546 0 0 0-2.803-.54L7.008 11.1a4.227 4.227 0 0 0-2.352 2.56 467.62 467.62 0 0 0-2.981 9.346A130.81 130.81 0 0 0 .5 27.045c-.148.552-.27 1.036-.355 1.427-.079.364-.144.723-.144.981v.352l2.194 2.194h.352c.259 0 .617-.065.981-.144.391-.085.875-.206 1.427-.355 1.105-.297 2.51-.709 4.039-1.175a467.62 467.62 0 0 0 9.346-2.981 4.23 4.23 0 0 0 2.56-2.352l4.039-9.423a2.546 2.546 0 0 0-.54-2.803l-5.164-5.164zm-2.135 1.021a.848.848 0 0 1 .934.18l5.164 5.164a.848.848 0 0 1 .18.934l-4.039 9.424a2.528 2.528 0 0 1-1.531 1.408 467.251 467.251 0 0 1-9.31 2.97c-1.522.464-2.906.87-3.984 1.16a28.774 28.774 0 0 1-1.554.378l8.671-8.671a2.547 2.547 0 0 0 2.898-4.098 2.546 2.546 0 0 0-4.098 2.898l-8.672 8.672c.012-.063.027-.132.043-.207.077-.353.19-.808.335-1.347a129.78 129.78 0 0 1 1.16-3.984 467.251 467.251 0 0 1 2.97-9.31 2.528 2.528 0 0 1 1.408-1.531l9.424-4.039z"/></symbol><symbol id="icon-gallery" viewBox="0 0 26 32"><path fill="#5221e6" style="fill:var(--color1,#5221e6)" d="M24.12 23.111v7.111h-9.932v-7.111h9.932zm0-21.333V16h-9.932V1.778h9.932zM8.513 16H1.419v14.222h7.094V16zm0-14.222v7.111H1.419V1.778h7.094zM14.188 0c-.784 0-1.419.796-1.419 1.778V16c0 .982.635 1.778 1.419 1.778h9.932c.784 0 1.419-.796 1.419-1.778V1.778C25.539.796 24.904 0 24.12 0h-9.932zm0 21.333c-.784 0-1.419.796-1.419 1.778v7.111c0 .982.635 1.778 1.419 1.778h9.932c.784 0 1.419-.796 1.419-1.778v-7.111c0-.982-.635-1.778-1.419-1.778h-9.932zM0 16c0-.982.635-1.778 1.419-1.778h7.094c.784 0 1.419.796 1.419 1.778v14.222c0 .982-.635 1.778-1.419 1.778H1.419C.635 32 0 31.204 0 30.222V16zM1.419 0C.635 0 0 .796 0 1.778v7.111c0 .982.635 1.778 1.419 1.778h7.094c.784 0 1.419-.796 1.419-1.778V1.778C9.932.796 9.297 0 8.513 0H1.419z"/></symbol></defs></svg>